<svg width="19" height="12" viewBox="0 0 19 12" fill="none" xmlns="http://www.w3.org/2000/svg">
<path opacity="0.5" fill-rule="evenodd" clip-rule="evenodd" d="M16.2899 0.406311H17.2456C17.905 0.406311 18.4395 0.921311 18.4395 1.55531V9.82531C18.4395 10.4593 17.905 10.9743 17.2456 10.9743H16.2899C15.6295 10.9743 15.0959 10.4593 15.0959 9.82531V1.55531C15.0959 0.921311 15.6295 0.406311 16.2899 0.406311Z" fill="white"/>
<path fill-rule="evenodd" clip-rule="evenodd" d="M11.5114 2.70361H12.4671C13.1275 2.70361 13.661 3.21761 13.661 3.85261V9.82561C13.661 10.4596 13.1275 10.9746 12.4671 10.9746H11.5114C10.851 10.9746 10.3174 10.4596 10.3174 9.82561V3.85261C10.3174 3.21761 10.851 2.70361 11.5114 2.70361Z" fill="white"/>
<path fill-rule="evenodd" clip-rule="evenodd" d="M6.73286 5.00101H7.68862C8.34902 5.00101 8.88254 5.51501 8.88254 6.14901V9.82501C8.88254 10.459 8.34902 10.974 7.68862 10.974H6.73286C6.07246 10.974 5.53894 10.459 5.53894 9.82501V6.14901C5.53894 5.51501 6.07246 5.00101 6.73286 5.00101Z" fill="white"/>
<path fill-rule="evenodd" clip-rule="evenodd" d="M1.9543 6.37943H2.91006C3.57045 6.37943 4.10397 6.89343 4.10397 7.52743V9.82543C4.10397 10.4594 3.57045 10.9744 2.91006 10.9744H1.9543C1.29494 10.9744 0.760376 10.4594 0.760376 9.82543V7.52743C0.760376 6.89343 1.29494 6.37943 1.9543 6.37943Z" fill="white"/>
</svg>
