<svg width="27" height="11" viewBox="0 0 27 11" fill="none" xmlns="http://www.w3.org/2000/svg">
<path fill-rule="evenodd" clip-rule="evenodd" d="M13.9306 9H4.62983C3.75207 9 3.03967 8.316 3.03967 7.472V3.528C3.03967 2.685 3.75207 2 4.62983 2H13.9306C14.8083 2 15.5197 2.685 15.5197 3.528V7.472C15.5197 8.316 14.8083 9 13.9306 9Z" fill="white"/>
<path opacity="0.5" fill-rule="evenodd" clip-rule="evenodd" d="M22.8 8.415C22.8 9.29 22.0616 10 21.1516 10H3.64836C2.73836 10 1.99996 9.29 1.99996 8.415V2.585C1.99996 1.71 2.73836 1 3.64836 1H21.1516C22.0616 1 22.8 1.71 22.8 2.585V8.415ZM21.4948 0H3.30516C2.01036 0 0.959961 1.01 0.959961 2.255V8.745C0.959961 9.99 2.01036 11 3.30516 11H21.4948C22.7896 11 23.84 9.99 23.84 8.745V2.255C23.84 1.01 22.7896 0 21.4948 0Z" fill="white"/>
<path opacity="0.5" fill-rule="evenodd" clip-rule="evenodd" d="M24.6199 7.5V3.5C25.4811 3.5 26.1799 4.172 26.1799 5V6C26.1799 6.829 25.4811 7.5 24.6199 7.5Z" fill="white"/>
</svg>
