<svg width="24" height="24" viewBox="0 0 24 24" fill="none" xmlns="http://www.w3.org/2000/svg">
<g clip-path="url(#clip0_161_733)">
<path d="M2 10C2 7.85208 3.84556 6.16729 5.99277 6.22216C7.7117 6.26609 9.63554 6.23903 11 6C14.2866 5.42425 18 3 18 3V17C18 17 14.2866 14.5758 11 14C9.63554 13.761 7.7117 13.7339 5.99277 13.7778C3.84555 13.8327 2 12.1479 2 10V10Z" stroke="#FCFCFC" stroke-width="2"/>
<path d="M13 15V21.5659C13 22.5664 11.6935 22.9469 11.1563 22.1028L6 14" stroke="#FCFCFC" stroke-width="2"/>
<path d="M18 13C19.6569 13 21 11.6569 21 10C21 8.34315 19.6569 7 18 7" stroke="#FCFCFC" stroke-width="2"/>
</g>
<defs>
<clipPath id="clip0_161_733">
<rect width="24" height="24" fill="white"/>
</clipPath>
</defs>
</svg>
