<svg width="29" height="12" viewBox="0 0 29 12" fill="none" xmlns="http://www.w3.org/2000/svg">
<path d="M4.94214 0.335968C2.65698 0.335968 0.987061 1.86673 0.987061 3.99808V4.01273C0.987061 5.99759 2.42261 7.46243 4.45142 7.46243C5.88696 7.46243 6.94165 6.73001 7.35913 5.76321H7.39575C7.40308 7.90189 6.70728 9.72562 4.90552 9.72562C3.96069 9.72562 3.30884 9.25687 3.03052 8.53177L3.00122 8.46585H1.12622L1.14819 8.54642C1.47778 10.1431 2.94263 11.271 4.89819 11.271C7.58618 11.271 9.20483 9.18362 9.20483 5.68997V5.67532C9.20483 1.96927 7.27124 0.335968 4.94214 0.335968ZM4.94214 6.00491C3.74097 6.00491 2.84741 5.14798 2.84741 3.94681V3.93216C2.84741 2.78958 3.78491 1.88138 4.96411 1.88138C6.15063 1.88138 7.07349 2.79691 7.07349 3.96878V3.9761C7.07349 5.1553 6.15063 6.00491 4.94214 6.00491ZM11.6409 4.17386C12.2342 4.17386 12.6956 3.70511 12.6956 3.11185C12.6956 2.51859 12.2342 2.05716 11.6409 2.05716C11.0477 2.05716 10.5789 2.51859 10.5789 3.11185C10.5789 3.70511 11.0477 4.17386 11.6409 4.17386ZM11.6409 9.54984C12.2342 9.54984 12.6956 9.08109 12.6956 8.48782C12.6956 7.89456 12.2342 7.43314 11.6409 7.43314C11.0477 7.43314 10.5789 7.89456 10.5789 8.48782C10.5789 9.08109 11.0477 9.54984 11.6409 9.54984ZM19.2626 11.0879H21.0644V9.05911H22.4999V7.50638H21.0644V0.519073H18.3764L13.9892 7.44778V9.05911H19.2626V11.0879ZM15.6884 7.55032V7.49905L19.2479 1.9473H19.2919V7.55032H15.6884ZM26.4009 11.0879H28.2539V0.519073H26.3862L23.625 2.45999V4.19583L26.3569 2.32083H26.4009V11.0879Z" fill="white"/>
</svg>
