<svg width="34" height="34" viewBox="0 0 34 34" fill="none" xmlns="http://www.w3.org/2000/svg">
<path fill-rule="evenodd" clip-rule="evenodd" d="M12.6497 6.3329C10.8488 6.13162 8.98456 6.13162 7.18366 6.3329C6.74607 6.38181 6.40097 6.72831 6.35175 7.14914C6.1367 8.98789 6.1367 10.8454 6.35175 12.6842C6.40097 13.105 6.74607 13.4515 7.18367 13.5004C8.98456 13.7017 10.8488 13.7017 12.6497 13.5004C13.0872 13.4515 13.4323 13.105 13.4816 12.6842C13.6966 10.8454 13.6966 8.98789 13.4816 7.14914C13.4323 6.72831 13.0872 6.38181 12.6497 6.3329ZM6.94763 4.22105C8.90539 4.00224 10.9279 4.00224 12.8857 4.22105C14.2894 4.37793 15.4262 5.48291 15.5922 6.90229C15.8264 8.90505 15.8264 10.9283 15.5922 12.931C15.4262 14.3504 14.2894 15.4554 12.8857 15.6123C10.9279 15.8311 8.90539 15.8311 6.94764 15.6123C5.54395 15.4554 4.40715 14.3504 4.24114 12.931C4.0069 10.9283 4.0069 8.90505 4.24114 6.90229C4.40715 5.48291 5.54394 4.37793 6.94763 4.22105Z" fill="white"/>
<path fill-rule="evenodd" clip-rule="evenodd" d="M12.6497 20.4996C10.8488 20.2983 8.98456 20.2983 7.18366 20.4996C6.74607 20.5485 6.40097 20.895 6.35175 21.3158C6.1367 23.1546 6.1367 25.0121 6.35175 26.8509C6.40097 27.2717 6.74607 27.6182 7.18367 27.6671C8.98456 27.8684 10.8488 27.8684 12.6497 27.6671C13.0872 27.6182 13.4323 27.2717 13.4816 26.8509C13.6966 25.0121 13.6966 23.1546 13.4816 21.3158C13.4323 20.895 13.0872 20.5485 12.6497 20.4996ZM6.94763 18.3877C8.90539 18.1689 10.9279 18.1689 12.8857 18.3877C14.2894 18.5446 15.4262 19.6496 15.5922 21.069C15.8264 23.0717 15.8264 25.095 15.5922 27.0977C15.4262 28.5171 14.2894 29.6221 12.8857 29.779C10.9279 29.9978 8.90539 29.9978 6.94764 29.779C5.54395 29.6221 4.40715 28.5171 4.24114 27.0977C4.0069 25.095 4.0069 23.0717 4.24114 21.069C4.40715 19.6496 5.54394 18.5446 6.94763 18.3877Z" fill="white"/>
<path fill-rule="evenodd" clip-rule="evenodd" d="M26.8163 6.3329C25.0154 6.13162 23.1512 6.13162 21.3503 6.3329C20.9127 6.38181 20.5676 6.72831 20.5184 7.14914C20.3034 8.98789 20.3034 10.8454 20.5184 12.6842C20.5676 13.105 20.9127 13.4515 21.3503 13.5004C23.1512 13.7017 25.0154 13.7017 26.8163 13.5004C27.2539 13.4515 27.599 13.105 27.6482 12.6842C27.8633 10.8454 27.8633 8.98789 27.6482 7.14914C27.599 6.72831 27.2539 6.38181 26.8163 6.3329ZM21.1143 4.22105C23.0721 4.00224 25.0946 4.00224 27.0523 4.22105C28.456 4.37793 29.5928 5.48291 29.7588 6.90229C29.9931 8.90505 29.9931 10.9283 29.7588 12.931C29.5928 14.3504 28.456 15.4554 27.0523 15.6123C25.0946 15.8311 23.0721 15.8311 21.1143 15.6123C19.7106 15.4554 18.5738 14.3504 18.4078 12.931C18.1736 10.9283 18.1736 8.90505 18.4078 6.90229C18.5738 5.48291 19.7106 4.37793 21.1143 4.22105Z" fill="white"/>
<path fill-rule="evenodd" clip-rule="evenodd" d="M26.8163 20.4996C25.0154 20.2983 23.1512 20.2983 21.3503 20.4996C20.9127 20.5485 20.5676 20.895 20.5184 21.3158C20.3034 23.1546 20.3034 25.0121 20.5184 26.8509C20.5676 27.2717 20.9127 27.6182 21.3503 27.6671C23.1512 27.8684 25.0154 27.8684 26.8163 27.6671C27.2539 27.6182 27.599 27.2717 27.6482 26.8509C27.8633 25.0121 27.8633 23.1546 27.6482 21.3158C27.599 20.895 27.2539 20.5485 26.8163 20.4996ZM21.1143 18.3877C23.0721 18.1689 25.0946 18.1689 27.0523 18.3877C28.456 18.5446 29.5928 19.6496 29.7588 21.069C29.9931 23.0717 29.9931 25.095 29.7588 27.0977C29.5928 28.5171 28.456 29.6221 27.0523 29.779C25.0946 29.9978 23.0721 29.9978 21.1143 29.779C19.7106 29.6221 18.5738 28.5171 18.4078 27.0977C18.1736 25.095 18.1736 23.0717 18.4078 21.069C18.5738 19.6496 19.7106 18.5446 21.1143 18.3877Z" fill="white"/>
</svg>
