<svg width="34" height="34" viewBox="0 0 34 34" fill="none" xmlns="http://www.w3.org/2000/svg">
<path fill-rule="evenodd" clip-rule="evenodd" d="M17 4.3622L13.8652 7.60565C13.5315 7.95088 13.072 8.14583 12.5919 8.14583H8.14583V12.5919C8.14583 13.072 7.95088 13.5315 7.60565 13.8652L4.3622 17L7.60565 20.1348C7.95088 20.4685 8.14583 20.928 8.14583 21.4081V25.8542H12.5919C13.072 25.8542 13.5315 26.0491 13.8652 26.3943L17 29.6378L20.1348 26.3943C20.4685 26.0491 20.928 25.8542 21.4081 25.8542H25.8542V21.4081C25.8542 20.928 26.0491 20.4685 26.3943 20.1348L29.6378 17L26.3943 13.8652C26.0491 13.5315 25.8542 13.072 25.8542 12.5919V8.14583H21.4081C20.928 8.14583 20.4684 7.95088 20.1348 7.60565L17 4.3622ZM15.7267 2.62192C16.4228 1.90168 17.5772 1.90168 18.2733 2.62192L21.5584 6.02083H26.2083C27.1863 6.02083 27.9792 6.81366 27.9792 7.79166V12.4416L31.3781 15.7267C32.0983 16.4228 32.0983 17.5772 31.3781 18.2733L27.9792 21.5584V26.2083C27.9792 27.1863 27.1863 27.9792 26.2083 27.9792H21.5584L18.2733 31.3781C17.5772 32.0983 16.4228 32.0983 15.7267 31.3781L12.4416 27.9792H7.79166C6.81366 27.9792 6.02083 27.1863 6.02083 26.2083V21.5584L2.62192 18.2733C1.90168 17.5772 1.90168 16.4228 2.62192 15.7267L6.02083 12.4416V7.79166C6.02083 6.81366 6.81366 6.02083 7.79166 6.02083H12.4416L15.7267 2.62192Z" fill="white"/>
<path fill-rule="evenodd" clip-rule="evenodd" d="M10.2708 17C10.2708 13.2836 13.2836 10.2708 17 10.2708C20.7164 10.2708 23.7292 13.2836 23.7292 17C23.7292 20.7164 20.7164 23.7292 17 23.7292C13.2836 23.7292 10.2708 20.7164 10.2708 17ZM17 12.3958C14.4572 12.3958 12.3958 14.4572 12.3958 17C12.3958 19.5428 14.4572 21.6042 17 21.6042C19.5428 21.6042 21.6042 19.5428 21.6042 17C21.6042 14.4572 19.5428 12.3958 17 12.3958Z" fill="white"/>
</svg>
