<svg width="34" height="34" viewBox="0 0 34 34" fill="none" xmlns="http://www.w3.org/2000/svg">
<path fill-rule="evenodd" clip-rule="evenodd" d="M6.21291 11.5412L7.89695 6.9404C8.32135 5.78093 9.35068 4.9501 10.5736 4.77992C14.8374 4.18658 19.1628 4.18657 23.4265 4.77992C24.6494 4.9501 25.6788 5.78095 26.1032 6.94042L27.7873 11.5416C28.1023 12.033 28.3192 12.5948 28.4103 13.2004L28.5547 14.1606C29.1211 17.927 29.0681 21.7607 28.398 25.51C28.1008 27.1721 26.7358 28.4347 25.0555 28.6015L23.3124 28.7745C19.1144 29.1912 14.8855 29.1912 10.6876 28.7745L8.94442 28.6015C7.26414 28.4347 5.8991 27.1722 5.60199 25.51C4.9318 21.7607 4.87885 17.927 5.44523 14.1606L5.58963 13.2004C5.68072 12.5946 5.89778 12.0327 6.21291 11.5412ZM10.8665 6.88464C14.9359 6.31834 19.0642 6.31833 23.1336 6.88464C23.5786 6.94657 23.9532 7.24891 24.1076 7.67083L24.8248 9.63006C24.7605 9.6207 24.6958 9.61278 24.6307 9.60631L23.2449 9.46877C19.0918 9.05656 14.9081 9.05656 10.755 9.46877L9.36927 9.60631C9.30418 9.61277 9.23953 9.62069 9.17533 9.63004L9.89247 7.67083C10.0469 7.2489 10.4215 6.94657 10.8665 6.88464ZM8.05469 12.6097L8.08112 12.6194L8.11392 12.5298C8.46206 12.0823 8.98497 11.7799 9.57915 11.7209L10.9649 11.5834C14.9784 11.185 19.0215 11.185 23.035 11.5834L24.4208 11.7209C25.0151 11.7799 25.5381 12.0825 25.8862 12.5301L25.9189 12.6194L25.9453 12.6097C26.131 12.8731 26.2586 13.1813 26.3089 13.5164L26.4533 14.4766C26.9853 18.0141 26.9356 21.6147 26.3061 25.136C26.1763 25.8623 25.5798 26.414 24.8456 26.4869L23.1025 26.6599C19.0441 27.0627 14.9558 27.0627 10.8975 26.6599L9.1543 26.4869C8.42011 26.414 7.82366 25.8623 7.69383 25.136C7.06439 21.6147 7.01466 18.0141 7.5466 14.4766L7.691 13.5164C7.74139 13.1813 7.86892 12.8731 8.05469 12.6097Z" fill="white"/>
</svg>
