<svg width="34" height="34" viewBox="0 0 34 34" fill="none" xmlns="http://www.w3.org/2000/svg">
<path fill-rule="evenodd" clip-rule="evenodd" d="M15.9375 8.20012C10.7643 8.73179 6.72917 13.103 6.72917 18.4167C6.72917 24.0891 11.3276 28.6875 17 28.6875C22.3137 28.6875 26.6849 24.6524 27.2165 19.4792H17C16.4132 19.4792 15.9375 19.0035 15.9375 18.4167V8.20012ZM4.60417 18.4167C4.60417 11.5706 10.154 6.02083 17 6.02083C17.5868 6.02083 18.0625 6.49653 18.0625 7.08333V17.3542H28.3333C28.9201 17.3542 29.3958 17.8299 29.3958 18.4167C29.3958 25.2627 23.846 30.8125 17 30.8125C10.154 30.8125 4.60417 25.2627 4.60417 18.4167Z" fill="white"/>
<path fill-rule="evenodd" clip-rule="evenodd" d="M21.9583 6.621V13.4583H28.7957C27.9981 10.0804 25.3362 7.41862 21.9583 6.621ZM21.2472 4.33733C26.376 4.97558 30.4411 9.0407 31.0793 14.1695C31.176 14.9459 30.5324 15.5833 29.75 15.5833H20.5417C20.1505 15.5833 19.8333 15.2662 19.8333 14.875V5.66667C19.8333 4.88426 20.4708 4.24071 21.2472 4.33733Z" fill="white"/>
</svg>
