<svg width="34" height="34" viewBox="0 0 34 34" fill="none" xmlns="http://www.w3.org/2000/svg">
<path fill-rule="evenodd" clip-rule="evenodd" d="M19.2069 7.84019C17.9736 6.65676 16.0264 6.65676 14.7931 7.84019L8.23897 14.1292C8.07839 14.2833 7.97037 14.4841 7.93023 14.703C7.14521 18.9839 7.08726 23.3666 7.75882 27.6668L7.91823 28.6875H12.1349V19.8881C12.1349 19.3013 12.6106 18.8256 13.1974 18.8256H20.8026C21.3894 18.8256 21.8651 19.3013 21.8651 19.8881V28.6875H26.0818L26.2412 27.6668C26.9128 23.3666 26.8548 18.9839 26.0698 14.703C26.0296 14.4841 25.9216 14.2833 25.761 14.1292L19.2069 7.84019ZM13.3218 6.3069C15.3773 4.33453 18.6227 4.33453 20.6782 6.3069L27.2323 12.596C27.7148 13.0589 28.0393 13.662 28.1599 14.3197C28.988 18.8355 29.0491 23.4585 28.3407 27.9947L28.0847 29.6344C27.9788 30.3126 27.3947 30.8125 26.7083 30.8125H20.8026C20.2158 30.8125 19.7401 30.3368 19.7401 29.75V20.9506H14.2599V29.75C14.2599 30.3368 13.7842 30.8125 13.1974 30.8125H7.29168C6.60533 30.8125 6.02125 30.3126 5.91535 29.6344L5.65927 27.9947C4.95087 23.4585 5.01199 18.8355 5.84008 14.3197C5.96068 13.662 6.28522 13.0589 6.76769 12.596L13.3218 6.3069Z" fill="white"/>
</svg>
