<svg width="16" height="12" viewBox="0 0 16 12" fill="none" xmlns="http://www.w3.org/2000/svg">
<path fill-rule="evenodd" clip-rule="evenodd" d="M7.73558 7.00629C6.6259 7.00629 5.7003 7.73129 5.44342 8.70529L7.84374 10.9743L10.0652 8.87429C9.87798 7.81529 8.90974 7.00629 7.73558 7.00629Z" fill="white"/>
<path fill-rule="evenodd" clip-rule="evenodd" d="M7.73555 3.7959C5.70235 3.7959 3.91875 4.7929 2.89227 6.2949L4.37323 7.6929C4.98371 6.5139 6.25251 5.6959 7.73555 5.6959C9.27476 5.6959 10.5956 6.5729 11.1759 7.8259L12.661 6.4219C11.6501 4.8499 9.82492 3.7959 7.73555 3.7959Z" fill="white"/>
<path opacity="0.5" fill-rule="evenodd" clip-rule="evenodd" d="M7.73557 0.405792C4.71437 0.405792 2.03428 1.76579 0.324524 3.86779L1.8138 5.27479C3.13045 3.52479 5.28949 2.37879 7.73557 2.37879C10.2368 2.37879 12.4426 3.57379 13.7499 5.39179L15.2402 3.98479C13.5346 1.81679 10.8129 0.405792 7.73557 0.405792Z" fill="white"/>
</svg>
