<svg width="34" height="34" viewBox="0 0 34 34" fill="none" xmlns="http://www.w3.org/2000/svg">
<path d="M19.125 13.8125C19.125 13.2257 18.6493 12.75 18.0625 12.75H9.5625C8.9757 12.75 8.5 13.2257 8.5 13.8125C8.5 14.3993 8.9757 14.875 9.5625 14.875H18.0625C18.6493 14.875 19.125 14.3993 19.125 13.8125Z" fill="black"/>
<path d="M17.7083 18.0625C17.7083 17.4757 17.2326 17 16.6458 17H9.5625C8.9757 17 8.5 17.4757 8.5 18.0625C8.5 18.6493 8.9757 19.125 9.5625 19.125H16.6458C17.2326 19.125 17.7083 18.6493 17.7083 18.0625Z" fill="black"/>
<path d="M18.0625 21.25C18.6493 21.25 19.125 21.7257 19.125 22.3125C19.125 22.8993 18.6493 23.375 18.0625 23.375H9.5625C8.9757 23.375 8.5 22.8993 8.5 22.3125C8.5 21.7257 8.9757 21.25 9.5625 21.25H18.0625Z" fill="black"/>
<path fill-rule="evenodd" clip-rule="evenodd" d="M8.5 30.8125H26.9167C29.0683 30.8125 30.8125 29.0683 30.8125 26.9167V19.125C30.8125 18.5382 30.3368 18.0625 29.75 18.0625H25.1458V7.0029C25.1458 4.98641 22.8666 3.81346 21.2257 4.98552L20.9777 5.16265C19.872 5.95243 18.3743 5.94978 17.2634 5.15629C15.4163 3.8369 12.9171 3.8369 11.0699 5.15629C9.95905 5.94978 8.46133 5.95243 7.35564 5.16265L7.10765 4.98552C5.46677 3.81346 3.1875 4.98641 3.1875 7.0029V25.5C3.1875 28.4341 5.56599 30.8125 8.5 30.8125ZM12.3051 6.88547C13.4134 6.09384 14.92 6.09384 16.0283 6.88547C17.8728 8.203 20.3631 8.21307 22.2128 6.89183L22.4608 6.7147C22.6952 6.54726 23.0208 6.71483 23.0208 7.0029V26.9167C23.0208 27.5544 23.174 28.1562 23.4456 28.6875H8.5C6.73959 28.6875 5.3125 27.2605 5.3125 25.5V7.0029C5.3125 6.71483 5.63811 6.54726 5.87252 6.7147L6.12051 6.89183C7.97024 8.21307 10.4605 8.203 12.3051 6.88547ZM25.1458 26.9167V20.1875H28.6875V26.9167C28.6875 27.8947 27.8947 28.6875 26.9167 28.6875C25.9387 28.6875 25.1458 27.8947 25.1458 26.9167Z" fill="black"/>
</svg>
