<svg width="34" height="34" viewBox="0 0 34 34" fill="none" xmlns="http://www.w3.org/2000/svg">
<path d="M21.9583 17C21.9583 15.8264 22.9097 14.875 24.0833 14.875C25.257 14.875 26.2083 15.8264 26.2083 17C26.2083 18.1737 25.257 19.125 24.0833 19.125C22.9097 19.125 21.9583 18.1737 21.9583 17Z" fill="black"/>
<path fill-rule="evenodd" clip-rule="evenodd" d="M28.9586 9.45491C28.0268 7.26522 25.9678 5.69113 23.5176 5.4333L22.5942 5.33612C17.93 4.84531 13.2257 4.87768 8.56873 5.43261L7.95682 5.50553C5.59269 5.78725 3.7195 7.63431 3.40461 9.99425C2.78416 14.6442 2.78416 19.3559 3.40461 24.0059C3.7195 26.3658 5.59269 28.2129 7.95682 28.4946L8.56873 28.5675C13.2257 29.1225 17.93 29.1548 22.5942 28.664L23.5176 28.5668C25.9678 28.309 28.0268 26.7349 28.9586 24.5452C30.4309 24.1069 31.5545 22.8305 31.739 21.2534C32.0695 18.4275 32.0695 15.5726 31.739 12.7467C31.5545 11.1696 30.4309 9.89326 28.9586 9.45491ZM22.3718 7.44945C17.8652 6.97522 13.3198 7.00649 8.82018 7.54268L8.20826 7.6156C6.80744 7.78253 5.69752 8.87697 5.51094 10.2753C4.91538 14.7387 4.91538 19.2614 5.51094 23.7248C5.69752 25.1232 6.80745 26.2176 8.20826 26.3845L8.82018 26.4575C13.3198 26.9936 17.8652 27.0249 22.3718 26.5507L23.2952 26.4535C24.5002 26.3267 25.5663 25.7328 26.3051 24.8512C24.1686 24.9757 22.0036 24.9201 19.8925 24.6841C18.0942 24.4831 16.6399 23.0671 16.4278 21.2534C16.0973 18.4275 16.0973 15.5726 16.4278 12.7467C16.6399 10.933 18.0942 9.51699 19.8925 9.31601C22.0036 9.08006 24.1686 9.02438 26.3051 9.14897C25.5663 8.26736 24.5002 7.67343 23.2952 7.54663L22.3718 7.44945ZM27.3096 11.3542C27.3105 11.3597 27.3114 11.3651 27.3122 11.3705L27.3208 11.4256L27.6022 11.3819C27.7478 11.3963 27.8931 11.4116 28.0382 11.4279C28.8704 11.5209 29.533 12.1784 29.6284 12.9936C29.9397 15.6555 29.9397 18.3446 29.6284 21.0066C29.533 21.8217 28.8704 22.4793 28.0382 22.5723C27.8931 22.5885 27.7478 22.6038 27.6021 22.6182L27.3208 22.5745L27.3122 22.6296C27.3114 22.635 27.3105 22.6405 27.3096 22.6459C24.9316 22.861 22.4927 22.8365 20.1285 22.5723C19.2964 22.4793 18.6337 21.8217 18.5384 21.0066C18.227 18.3446 18.227 15.6555 18.5384 12.9936C18.6337 12.1784 19.2964 11.5209 20.1285 11.4279C22.4927 11.1636 24.9316 11.1391 27.3096 11.3542Z" fill="black"/>
</svg>
